M48
; DRILL file {KiCad 9.0.6} date 2025-11-17T16:57:28+0530
; FORMAT={-:-/ absolute / metric / decimal}
; #@! TF.CreationDate,2025-11-17T16:57:28+05:30
; #@! TF.GenerationSoftware,Kicad,Pcbnew,9.0.6
; #@! TF.FileFunction,Plated,1,2,PTH
FMAT,2
METRIC
; #@! TA.AperFunction,Plated,PTH,ViaDrill
T1C0.300
; #@! TA.AperFunction,Plated,PTH,ComponentDrill
T2C0.700
; #@! TA.AperFunction,Plated,PTH,ComponentDrill
T3C0.800
; #@! TA.AperFunction,Plated,PTH,ComponentDrill
T4C1.000
; #@! TA.AperFunction,Plated,PTH,ComponentDrill
T5C1.100
; #@! TA.AperFunction,Plated,PTH,ComponentDrill
T6C1.500
%
G90
G05
T1
X43.795Y-100.025
X44.185Y-114.455
X45.075Y-138.135
X52.337Y-95.57
X54.974Y-155.375
X55.777Y-167.1
X56.447Y-109.08
X56.727Y-91.26
X59.935Y-78.705
X59.967Y-185.74
X60.987Y-127.72
X63.267Y-54.45
X64.097Y-147.77
X65.055Y-80.375
X76.468Y-110.32
X77.665Y-97.855
X78.265Y-97.102
X79.11Y-96.854
X79.415Y-95.955
X79.735Y-94.915
X80.608Y-166.62
X80.91Y-95.651
X81.369Y-94.784
X83.487Y-184.57
X85.337Y-129.09
X91.057Y-147.84
X94.358Y-91.72
X95.167Y-109.63
X99.927Y-167.38
X104.457Y-128.75
X105.58Y-98.765
X106.807Y-188.7
X107.767Y-66.45
X110.317Y-147.15
X113.877Y-110.32
X114.167Y-91.24
X118.917Y-168.06
X123.647Y-129.44
X124.63Y-98.755
X127.578Y-147.22
X129.987Y-185.74
X133.148Y-90.34
X133.278Y-110.38
X137.487Y-167.58
X142.147Y-128.68
X143.68Y-98.755
X146.838Y-147.43
X151.447Y-90.82
X152.127Y-110.73
X156.197Y-167.99
X161.477Y-127.85
X163.98Y-98.755
X165.887Y-147.57
X170.157Y-177.743
X170.897Y-110.18
X175.867Y-168.34
X177.308Y-185.81
X180.327Y-128.34
X181.157Y-90.68
X183.03Y-98.765
X186.667Y-147.22
X189.197Y-110.93
X193.197Y-185.19
X195.058Y-166.62
X198.968Y-129.85
X200.077Y-91.17
X202.08Y-98.025
X204.337Y-148.39
X209.207Y-109.42
X211.697Y-187.74
X214.517Y-167.24
X219.047Y-128.41
X219.267Y-90.41
X222.498Y-147.91
X223.13Y-98.755
X227.517Y-185.67
X228.127Y-110.25
X233.087Y-167.24
X237.077Y-184.02
X237.347Y-128.68
X238.107Y-90.55
X242.237Y-147.7
X242.927Y-166.21
X246.637Y-185.88
X246.697Y-109.83
X252.487Y-167.31
X257.087Y-128.47
X261.657Y-148.41
X262.597Y-167.17
X266.035Y-110.08
X266.377Y-90.2
X266.377Y-184.85
X272.469Y-166.309
X276.428Y-127.0
X281.308Y-146.95
X283.988Y-185.12
X284.397Y-110.63
X285.707Y-90.48
X292.685Y-111.085
X294.027Y-127.76
X297.887Y-166.96
X304.007Y-185.53
X304.488Y-90.62
X312.667Y-147.22
X315.147Y-109.19
X317.627Y-128.58
X322.988Y-90.41
X322.988Y-147.29
X323.267Y-185.67
X323.678Y-166.96
X324.589Y-75.645
X325.193Y-79.824
X325.267Y-76.65
X326.067Y-79.85
X328.587Y-89.74
X341.558Y-90.2
X341.697Y-109.46
X341.967Y-128.72
X342.457Y-184.57
X342.587Y-146.81
X343.277Y-166.48
T2
X98.267Y-59.64
X98.267Y-67.26
X100.767Y-59.64
X100.767Y-67.26
T3
X61.805Y-80.975
X61.805Y-88.595
X61.805Y-100.025
X61.805Y-107.645
X66.567Y-176.225
X66.567Y-183.845
X71.33Y-119.075
X71.33Y-126.695
X76.093Y-138.125
X76.093Y-145.745
X80.855Y-100.025
X80.855Y-107.645
X85.617Y-157.175
X85.617Y-164.795
X90.38Y-119.075
X90.38Y-126.695
X90.38Y-176.225
X90.38Y-183.845
X95.142Y-138.125
X95.142Y-145.745
X99.905Y-80.975
X99.905Y-88.595
X99.905Y-100.025
X99.905Y-107.645
X104.667Y-157.175
X104.667Y-164.795
X109.43Y-119.075
X109.43Y-126.695
X114.192Y-138.125
X114.192Y-145.745
X114.192Y-176.225
X114.192Y-183.845
X118.955Y-80.975
X118.955Y-88.595
X118.955Y-100.025
X118.955Y-107.645
X123.718Y-157.175
X123.718Y-164.795
X128.48Y-119.075
X128.48Y-126.695
X133.243Y-138.125
X133.243Y-145.745
X138.005Y-80.975
X138.005Y-88.595
X138.005Y-100.025
X138.005Y-107.645
X142.767Y-157.175
X142.767Y-164.795
X147.53Y-119.075
X147.53Y-126.695
X152.292Y-138.125
X152.292Y-145.745
X157.055Y-80.975
X157.055Y-88.595
X157.055Y-100.025
X157.055Y-107.645
X161.817Y-157.175
X161.817Y-164.795
X166.58Y-119.075
X166.58Y-126.695
X171.343Y-138.125
X171.343Y-145.745
X176.105Y-100.025
X176.105Y-107.645
X180.867Y-157.175
X180.867Y-164.795
X185.63Y-80.975
X185.63Y-88.595
X185.63Y-119.075
X185.63Y-126.695
X190.392Y-138.125
X190.392Y-145.745
X195.155Y-100.025
X195.155Y-107.645
X199.917Y-157.175
X199.917Y-164.795
X204.68Y-80.975
X204.68Y-88.595
X204.68Y-119.075
X204.68Y-126.695
X209.442Y-138.125
X209.442Y-145.745
X214.205Y-100.025
X214.205Y-107.645
X218.968Y-157.175
X218.968Y-164.795
X223.73Y-80.975
X223.73Y-88.595
X223.73Y-119.075
X223.73Y-126.695
X228.492Y-138.125
X228.492Y-145.745
X233.255Y-100.025
X233.255Y-107.645
X233.255Y-176.225
X233.255Y-183.845
X238.017Y-157.175
X238.017Y-164.795
X242.78Y-80.975
X242.78Y-88.595
X242.78Y-119.075
X242.78Y-126.695
X247.542Y-138.125
X247.542Y-145.745
X252.305Y-100.025
X252.305Y-107.645
X252.305Y-176.225
X252.305Y-183.845
X257.067Y-157.175
X257.067Y-164.795
X261.83Y-119.075
X261.83Y-126.695
X266.592Y-138.125
X266.592Y-145.745
X271.355Y-80.975
X271.355Y-88.595
X271.355Y-100.025
X271.355Y-107.645
X271.355Y-176.225
X271.355Y-183.845
X276.118Y-157.175
X276.118Y-164.795
X280.88Y-119.075
X280.88Y-126.695
X285.642Y-138.125
X285.642Y-145.745
X290.405Y-80.975
X290.405Y-88.595
X290.405Y-100.025
X290.405Y-107.645
X290.405Y-176.225
X290.405Y-183.845
X302.311Y-119.075
X302.311Y-126.695
X309.455Y-80.975
X309.455Y-88.595
X309.455Y-157.175
X309.455Y-164.795
X309.455Y-176.225
X309.455Y-183.845
X328.505Y-80.975
X328.505Y-100.025
X328.505Y-119.075
X328.505Y-126.695
X328.505Y-138.125
X328.505Y-145.745
X328.505Y-157.175
X328.505Y-164.795
X328.505Y-176.225
X328.505Y-183.845
X336.125Y-80.975
X336.125Y-100.025
X347.555Y-100.025
X347.555Y-107.645
X347.555Y-119.075
X347.555Y-126.695
X347.555Y-138.125
X347.555Y-145.745
X347.555Y-157.175
X347.555Y-164.795
X347.555Y-176.225
X347.555Y-183.845
X348.267Y-80.975
X348.267Y-88.595
T4
X44.047Y-57.97
X44.047Y-75.75
X46.587Y-57.97
X46.587Y-75.75
X49.127Y-57.97
X49.127Y-75.75
X51.667Y-57.97
X51.667Y-75.75
X54.207Y-57.97
X54.207Y-75.75
X56.747Y-57.97
X56.747Y-75.75
X59.287Y-57.97
X59.287Y-75.75
X61.828Y-57.97
X61.828Y-75.75
X64.367Y-57.97
X64.367Y-75.75
X66.907Y-57.97
X66.907Y-75.75
X69.447Y-57.97
X69.447Y-75.75
X71.987Y-57.97
X71.987Y-75.75
X74.528Y-57.97
X74.528Y-75.75
X77.067Y-57.97
X77.067Y-75.75
X79.608Y-57.97
X79.608Y-75.75
X82.147Y-57.97
X82.147Y-75.75
X84.688Y-57.97
X84.688Y-75.75
X87.227Y-57.97
X87.227Y-75.75
X89.767Y-57.97
X89.767Y-75.75
X92.307Y-57.97
X92.307Y-75.75
X99.767Y-70.91
X99.767Y-73.45
X99.767Y-75.99
X105.267Y-70.41
X105.267Y-72.95
X105.267Y-75.49
X127.287Y-52.55
X129.827Y-52.55
X132.368Y-52.55
X134.907Y-52.55
X140.767Y-65.91
X140.767Y-68.45
X147.267Y-58.675
X147.267Y-61.215
X147.267Y-66.175
X147.267Y-68.715
X330.53Y-88.0
X330.53Y-90.5
X330.53Y-93.0
X345.03Y-88.0
X345.03Y-93.0
T5
X110.267Y-70.14
X110.267Y-77.76
X113.767Y-62.64
X113.767Y-70.26
T6
X49.68Y-84.75
X49.68Y-103.8
X49.68Y-160.95
X52.061Y-180.0
X54.442Y-122.85
X56.68Y-85.8
X56.68Y-104.85
X56.68Y-162.0
X56.824Y-141.9
X59.061Y-181.05
X61.442Y-123.9
X61.586Y-160.95
X63.824Y-142.95
X68.586Y-162.0
X68.73Y-103.8
X73.492Y-160.95
X75.73Y-104.85
X75.874Y-180.0
X78.255Y-122.85
X80.492Y-162.0
X82.874Y-181.05
X83.017Y-141.9
X85.255Y-123.9
X87.78Y-84.75
X87.78Y-103.8
X90.017Y-142.95
X92.542Y-160.95
X94.78Y-85.8
X94.78Y-104.85
X97.305Y-122.85
X99.542Y-162.0
X99.686Y-180.0
X102.067Y-141.9
X104.305Y-123.9
X106.686Y-181.05
X106.83Y-84.75
X106.83Y-103.8
X109.067Y-142.95
X111.593Y-160.95
X113.83Y-85.8
X113.83Y-104.85
X116.355Y-122.85
X118.593Y-162.0
X121.117Y-141.9
X121.117Y-180.0
X123.355Y-123.9
X125.88Y-84.75
X125.88Y-103.8
X128.118Y-142.95
X128.118Y-181.05
X130.642Y-160.95
X132.88Y-85.8
X132.88Y-104.85
X135.405Y-122.85
X137.642Y-162.0
X140.167Y-141.9
X142.405Y-123.9
X144.93Y-84.75
X144.93Y-103.8
X147.167Y-142.95
X149.692Y-160.95
X151.93Y-85.8
X151.93Y-104.85
X154.455Y-122.85
X156.692Y-162.0
X159.218Y-141.9
X161.455Y-123.9
X163.98Y-103.8
X166.218Y-142.95
X168.742Y-160.95
X170.98Y-104.85
X171.124Y-180.0
X173.505Y-84.75
X173.505Y-122.85
X175.742Y-162.0
X178.124Y-181.05
X178.267Y-141.9
X180.505Y-85.8
X180.505Y-123.9
X183.03Y-103.8
X185.267Y-142.95
X187.792Y-160.95
X190.03Y-104.85
X192.555Y-84.75
X192.555Y-122.85
X194.792Y-162.0
X197.317Y-141.9
X199.555Y-85.8
X199.555Y-123.9
X202.08Y-103.8
X204.317Y-142.95
X206.843Y-160.95
X209.08Y-104.85
X211.605Y-84.75
X211.605Y-122.85
X213.843Y-162.0
X216.367Y-141.9
X218.605Y-85.8
X218.605Y-123.9
X221.13Y-103.8
X221.13Y-180.0
X223.367Y-142.95
X225.892Y-160.95
X228.13Y-104.85
X228.13Y-181.05
X230.655Y-84.75
X230.655Y-122.85
X232.892Y-162.0
X235.417Y-141.9
X237.655Y-85.8
X237.655Y-123.9
X240.18Y-103.8
X240.18Y-180.0
X242.417Y-142.95
X244.942Y-160.95
X247.18Y-104.85
X247.18Y-181.05
X249.705Y-122.85
X251.942Y-162.0
X254.468Y-141.9
X256.705Y-123.9
X259.23Y-84.75
X259.23Y-103.8
X259.23Y-180.0
X261.467Y-142.95
X263.993Y-160.95
X266.23Y-85.8
X266.23Y-104.85
X266.23Y-181.05
X268.755Y-122.85
X270.993Y-162.0
X273.517Y-141.9
X275.755Y-123.9
X278.28Y-84.75
X278.28Y-103.8
X278.28Y-180.0
X280.517Y-142.95
X285.28Y-85.8
X285.28Y-104.85
X285.28Y-181.05
X287.805Y-122.85
X290.186Y-160.95
X292.567Y-141.9
X294.805Y-123.9
X294.949Y-103.8
X297.186Y-162.0
X297.33Y-84.75
X297.33Y-180.0
X299.567Y-142.95
X301.949Y-104.85
X304.33Y-85.8
X304.33Y-181.05
X304.474Y-141.9
X306.855Y-103.8
X311.474Y-142.95
X311.618Y-122.85
X313.855Y-104.85
X316.38Y-84.75
X316.38Y-141.9
X316.38Y-160.95
X316.38Y-180.0
X318.618Y-123.9
X318.761Y-103.8
X323.38Y-85.8
X323.38Y-142.95
X323.38Y-162.0
X323.38Y-181.05
X325.761Y-104.85
X335.43Y-103.8
X335.43Y-122.85
X335.43Y-141.9
X335.43Y-160.95
X335.43Y-180.0
X342.43Y-104.85
X342.43Y-123.9
X342.43Y-142.95
X342.43Y-162.0
X342.43Y-181.05
T6
G00X337.38Y-84.9
M15
G01X338.68Y-84.9
M16
G05
G00X337.38Y-96.1
M15
G01X338.68Y-96.1
M16
G05
M30
