M48
; DRILL file {KiCad 9.0.6} date 2025-11-17T16:57:28+0530
; FORMAT={-:-/ absolute / metric / decimal}
; #@! TF.CreationDate,2025-11-17T16:57:28+05:30
; #@! TF.GenerationSoftware,Kicad,Pcbnew,9.0.6
; #@! TF.FileFunction,NonPlated,1,2,NPTH
FMAT,2
METRIC
; #@! TA.AperFunction,NonPlated,NPTH,ComponentDrill
T1C1.600
; #@! TA.AperFunction,NonPlated,NPTH,ComponentDrill
T2C1.850
; #@! TA.AperFunction,NonPlated,NPTH,ComponentDrill
T3C2.100
; #@! TA.AperFunction,NonPlated,NPTH,ComponentDrill
T4C2.200
; #@! TA.AperFunction,NonPlated,NPTH,ComponentDrill
T5C2.300
; #@! TA.AperFunction,NonPlated,NPTH,ComponentDrill
T6C3.048
; #@! TA.AperFunction,NonPlated,NPTH,ComponentDrill
T7C3.200
; #@! TA.AperFunction,NonPlated,NPTH,ComponentDrill
T8C3.988
; #@! TA.AperFunction,NonPlated,NPTH,ComponentDrill
T9C5.250
; #@! TA.AperFunction,NonPlated,NPTH,ComponentDrill
T10C6.250
%
G90
G05
T2
X47.207Y-64.435
X47.207Y-69.285
T3
X338.03Y-90.5
T4
X44.177Y-64.135
X44.177Y-69.585
T5
X52.28Y-86.8
T6
X52.248Y-159.715
X76.124Y-159.715
X123.724Y-178.765
X223.724Y-178.765
X295.136Y-140.665
X297.517Y-102.565
X319.012Y-140.665
X321.393Y-102.565
T7
X47.517Y-147.65
X71.33Y-90.5
X71.33Y-147.65
X147.53Y-185.75
X161.817Y-90.5
X199.917Y-185.75
X247.542Y-90.5
X280.925Y-166.7
X304.692Y-166.7
X326.104Y-131.499
T8
X52.248Y-174.925
X76.124Y-174.925
X123.724Y-193.975
X223.724Y-193.975
X295.136Y-155.875
X297.517Y-117.775
X319.012Y-155.875
X321.393Y-117.775
T9
X52.28Y-90.5
X52.28Y-109.55
X52.28Y-166.7
X54.661Y-185.75
X57.042Y-128.6
X59.424Y-147.65
X64.186Y-166.7
X71.33Y-109.55
X76.093Y-166.7
X78.474Y-185.75
X80.855Y-128.6
X85.617Y-147.65
X90.38Y-90.5
X90.38Y-109.55
X95.142Y-166.7
X99.905Y-128.6
X102.286Y-185.75
X104.667Y-147.65
X109.43Y-90.5
X109.43Y-109.55
X114.192Y-166.7
X118.955Y-128.6
X123.718Y-147.65
X123.718Y-185.75
X128.48Y-90.5
X128.48Y-109.55
X133.243Y-166.7
X138.005Y-128.6
X142.767Y-147.65
X147.53Y-90.5
X147.53Y-109.55
X152.292Y-166.7
X157.055Y-128.6
X161.817Y-147.65
X166.58Y-109.55
X171.343Y-166.7
X173.724Y-185.75
X176.105Y-90.5
X176.105Y-128.6
X180.867Y-147.65
X185.63Y-109.55
X190.392Y-166.7
X195.155Y-90.5
X195.155Y-128.6
X199.917Y-147.65
X204.68Y-109.55
X209.442Y-166.7
X214.205Y-90.5
X214.205Y-128.6
X218.968Y-147.65
X223.73Y-109.55
X223.73Y-185.75
X228.492Y-166.7
X233.255Y-90.5
X233.255Y-128.6
X238.017Y-147.65
X242.78Y-109.55
X242.78Y-185.75
X247.542Y-166.7
X252.305Y-128.6
X257.067Y-147.65
X261.83Y-90.5
X261.83Y-109.55
X261.83Y-185.75
X266.592Y-166.7
X271.355Y-128.6
X276.118Y-147.65
X280.88Y-90.5
X280.88Y-109.55
X280.88Y-185.75
X290.405Y-128.6
X292.786Y-166.7
X295.167Y-147.65
X297.549Y-109.55
X299.93Y-90.5
X299.93Y-185.75
X307.074Y-147.65
X309.455Y-109.55
X314.217Y-128.6
X318.98Y-90.5
X318.98Y-147.65
X318.98Y-166.7
X318.98Y-185.75
X321.361Y-109.55
X338.03Y-109.55
X338.03Y-128.6
X338.03Y-147.65
X338.03Y-166.7
X338.03Y-185.75
T10
X52.28Y-90.5
T1
G00X333.23Y-90.5
M15
G01X333.83Y-90.5
M16
G05
M30
